<?xml version="1.0" standalone="no"?>
<!DOCTYPE svg PUBLIC "-//W3C//DTD SVG 20010904//EN"
 "http://www.w3.org/TR/2001/REC-SVG-20010904/DTD/svg10.dtd">
<svg version="1.0" xmlns="http://www.w3.org/2000/svg"
 width="631.000000pt" height="163.000000pt" viewBox="0 0 631.000000 163.000000"
 preserveAspectRatio="xMidYMid meet">
<metadata>
Created by potrace 1.16, written by Peter Selinger 2001-2019
</metadata>
<g transform="translate(0.000000,163.000000) scale(0.100000,-0.100000)"
fill="#fff" stroke="none">
<path d="M522 1328 c-16 -20 -47 -132 -81 -288 -18 -80 -34 -152 -38 -160 -10
-25 -14 -220 -5 -220 5 0 13 28 16 63 12 108 6 102 99 105 45 2 115 10 156 17
40 8 77 12 82 10 4 -3 1 -21 -7 -41 -22 -52 -11 -74 35 -74 43 0 138 30 188
60 42 24 39 25 46 -1 5 -19 11 -21 54 -17 26 3 91 21 143 41 65 25 97 32 101
25 4 -7 -16 -37 -46 -71 -111 -122 -129 -237 -37 -237 103 0 169 121 133 247
-8 27 -6 34 17 56 35 32 81 61 88 55 3 -3 0 -73 -7 -155 -12 -151 -8 -223 14
-223 9 0 12 37 13 138 0 102 7 178 28 297 15 88 30 163 32 167 3 5 62 8 130 8
96 0 125 3 121 13 -3 8 -21 11 -58 9 -29 -2 -82 -1 -117 3 -63 7 -64 7 -57 33
3 15 15 46 27 70 11 24 17 50 13 60 -6 15 -8 15 -25 -6 -10 -12 -28 -52 -40
-88 l-22 -65 -99 2 c-54 1 -101 0 -105 -4 -18 -18 16 -27 102 -27 52 0 94 -3
94 -7 -3 -49 -38 -209 -46 -206 -5 2 -35 -12 -67 -31 -47 -28 -57 -31 -57 -18
0 9 -7 26 -15 36 -22 29 -18 56 12 88 31 32 25 47 -12 30 -35 -16 -50 -57 -36
-101 6 -19 9 -37 7 -39 -8 -7 -227 -82 -242 -82 -18 0 -18 31 1 56 20 26 19
34 -5 34 -10 0 -24 -9 -30 -19 -16 -30 -151 -93 -211 -99 -48 -4 -52 -3 -44
14 30 73 30 76 13 87 -14 10 -15 13 -1 34 19 29 10 53 -20 53 -18 0 -28 -8
-37 -29 -6 -17 -9 -34 -6 -39 7 -11 -84 -29 -199 -39 -64 -5 -77 -4 -73 8 5
16 125 89 141 86 5 -1 12 4 14 10 10 26 -27 23 -86 -6 -34 -17 -61 -28 -61
-24 0 29 71 316 84 341 26 50 17 95 -12 60z m818 -575 c6 -23 5 -53 -1 -76
-22 -84 -129 -151 -137 -86 -2 15 3 42 11 60 16 38 106 153 114 145 3 -2 9
-22 13 -43z"/>
<path d="M2751 1286 c-18 -50 -91 -357 -91 -386 0 -7 -7 -21 -16 -31 -10 -11
-13 -23 -8 -31 5 -7 7 -50 5 -95 -4 -101 13 -112 23 -14 3 38 8 75 11 83 4 9
29 14 80 16 42 1 109 8 150 16 41 7 75 8 75 4 0 -5 -7 -22 -15 -37 -37 -73
-27 -151 20 -151 45 0 91 55 119 143 3 9 11 19 18 21 53 14 97 22 94 17 -9
-15 -27 -247 -21 -278 10 -56 25 -37 25 35 0 59 6 116 25 228 4 23 12 34 30
38 14 4 25 11 25 17 0 6 -9 9 -20 6 -15 -4 -20 0 -20 15 0 34 61 301 81 353
10 28 19 58 19 68 0 31 -21 18 -40 -25 -16 -38 -78 -293 -94 -390 -7 -38 -12
-42 -77 -53 -34 -6 -36 -5 -42 24 -15 73 -85 93 -122 34 -17 -27 -29 -33 -83
-42 -34 -7 -99 -14 -145 -18 -77 -6 -81 -5 -67 11 18 23 110 76 131 76 9 0 20
7 23 15 11 29 -24 27 -85 -5 l-61 -31 7 43 c14 82 65 279 80 308 19 37 19 70
1 70 -8 0 -23 -23 -35 -54z"/>
<path d="M5132 1327 c-15 -18 -56 -161 -83 -294 -20 -95 -27 -113 -44 -117
-12 -3 -41 -19 -65 -35 l-45 -30 -18 50 c-17 46 -18 52 -3 74 9 14 21 25 26
25 6 0 10 7 10 15 0 21 -26 19 -50 -5 -25 -25 -26 -78 -4 -138 l17 -43 -47
-47 c-81 -80 -117 -161 -97 -215 9 -23 17 -27 48 -27 45 0 95 28 120 67 14 22
18 48 18 128 l0 100 49 33 c48 32 66 36 50 10 -12 -18 -16 -218 -6 -218 5 0
13 28 16 63 9 82 16 108 27 102 9 -6 180 9 238 21 30 6 33 5 27 -13 -11 -34 3
-53 38 -53 50 0 286 83 286 101 0 15 -14 11 -125 -31 -172 -64 -195 -64 -160
4 9 16 13 31 11 33 -2 2 -39 -3 -82 -12 -42 -9 -113 -19 -157 -22 -66 -5 -79
-4 -75 8 5 16 125 89 141 86 5 -1 12 4 14 10 10 26 -27 23 -86 -6 -34 -17 -61
-28 -61 -24 0 28 72 318 84 342 26 50 17 93 -12 58z m-237 -581 c11 -71 -20
-140 -78 -171 -64 -34 -84 1 -48 82 19 41 96 133 112 133 4 0 11 -20 14 -44z"/>
<path d="M3851 1223 c-18 -48 -64 -141 -104 -208 -70 -115 -74 -120 -107 -121
-19 -1 -54 -9 -77 -18 -23 -8 -60 -19 -83 -22 -38 -6 -40 -5 -40 18 0 14 -9
37 -21 52 -41 52 -116 21 -107 -45 3 -19 -2 -45 -14 -67 -10 -20 -18 -57 -18
-82 0 -76 35 -91 94 -40 19 17 42 52 52 78 22 59 21 58 72 66 l43 6 -16 -30
c-16 -31 -23 -109 -11 -129 19 -30 47 -8 107 84 34 52 65 95 70 95 35 0 36
-10 7 -123 -36 -139 -47 -237 -27 -237 10 0 14 14 15 48 3 99 139 547 202 663
34 66 37 99 9 99 -9 0 -27 -34 -46 -87z"/>
<path d="M2222 873 c-50 -30 -202 -84 -214 -77 -4 3 -8 19 -8 35 0 40 -19 45
-76 20 -26 -12 -49 -19 -52 -16 -3 2 3 16 13 31 l17 27 -28 -6 c-16 -3 -69
-21 -119 -40 -49 -19 -105 -38 -122 -42 -29 -6 -33 -4 -33 14 0 11 4 31 10 45
8 22 7 26 -9 26 -20 0 -31 -26 -31 -77 0 -31 2 -33 38 -33 31 0 140 33 215 65
14 6 17 2 17 -19 0 -32 24 -34 80 -6 22 11 41 20 44 20 3 0 6 -15 8 -32 3 -29
7 -33 35 -36 26 -3 110 21 186 53 13 6 17 2 17 -17 0 -66 59 -64 216 9 68 31
124 60 124 65 0 14 -14 10 -116 -36 -123 -54 -170 -69 -185 -61 -6 5 1 14 20
26 54 33 67 89 19 89 -13 -1 -42 -12 -66 -27z"/>
<path d="M3873 885 c2 -5 29 -10 60 -10 30 0 54 -2 51 -6 -2 -4 -35 -25 -74
-48 -38 -23 -70 -48 -70 -55 0 -10 21 -16 71 -21 39 -4 96 -13 127 -20 59 -14
68 -13 58 4 -8 12 -133 41 -178 41 -32 0 -32 1 29 39 59 38 92 74 75 85 -15 9
-152 1 -149 -9z"/>
<path d="M4331 884 c-27 -19 -208 -84 -234 -84 -13 0 -17 5 -13 18 17 58 18
72 3 72 -19 0 -27 -21 -27 -71 0 -38 1 -39 33 -39 18 0 72 13 120 29 l86 29 3
-36 c3 -36 4 -37 46 -40 33 -3 64 7 143 43 56 25 103 44 106 42 2 -3 1 -26 -2
-51 -6 -37 -13 -49 -40 -66 -18 -11 -62 -51 -98 -89 -106 -113 -161 -248 -127
-312 15 -27 77 -25 121 4 67 45 119 162 150 335 l12 73 66 33 c36 18 83 39
104 46 24 7 35 16 30 21 -11 11 -60 -5 -141 -44 l-54 -26 5 22 c14 58 18 97
11 97 -5 0 -61 -22 -124 -50 -121 -52 -180 -69 -180 -53 0 5 11 15 24 21 31
14 60 57 52 77 -7 20 -46 19 -75 -1z m229 -270 c-35 -148 -84 -234 -152 -270
-37 -19 -47 -18 -59 9 -14 31 16 116 69 193 40 60 149 170 158 161 3 -3 -4
-45 -16 -93z"/>
</g>
</svg>
