<?xml version="1.0" standalone="no"?>
<!DOCTYPE svg PUBLIC "-//W3C//DTD SVG 20010904//EN"
 "http://www.w3.org/TR/2001/REC-SVG-20010904/DTD/svg10.dtd">
<svg version="1.0" xmlns="http://www.w3.org/2000/svg"
 width="290.000000pt" height="88.000000pt" viewBox="0 0 290.000000 88.000000"
 preserveAspectRatio="xMidYMid meet">

<g transform="translate(0.000000,88.000000) scale(0.100000,-0.100000)"
fill="#000000" stroke="none">
<path d="M0 869 c0 -5 5 -7 10 -4 5 3 10 8 10 11 0 2 -4 4 -10 4 -5 0 -10 -5
-10 -11z"/>
<path d="M136 872 c-55 -1 -106 -8 -113 -14 -17 -14 -18 -219 -1 -236 7 -7 48
-13 102 -14 l91 -2 -87 -3 c-49 -2 -96 1 -107 6 -18 10 -19 3 -18 -297 l1
-307 1446 0 1446 0 2 436 2 437 -87 -4 c-49 -3 -108 -6 -132 -8 -24 -2 -38 -1
-32 3 6 4 -135 6 -315 4 -220 -2 -332 -7 -341 -14 -17 -15 -19 -219 -1 -237 7
-7 48 -13 102 -14 l91 -2 -87 -3 c-129 -5 -128 -7 -128 135 0 81 4 122 13 131
10 10 -17 11 -138 6 -82 -3 -161 -8 -175 -11 -16 -3 -20 -2 -12 4 7 5 -129 7
-314 5 -220 -2 -332 -7 -341 -14 -17 -15 -19 -219 -1 -237 7 -7 48 -13 102
-14 l91 -2 -87 -3 c-129 -5 -128 -7 -128 135 0 81 4 122 13 131 10 10 -17 11
-133 6 -80 -3 -156 -8 -170 -11 -15 -3 -20 -1 -13 4 12 7 -330 10 -541 4z
m137 -9 c-7 -2 -21 -2 -30 0 -10 3 -4 5 12 5 17 0 24 -2 18 -5z m344 1 c-3 -3
-12 -4 -19 -1 -8 3 -5 6 6 6 11 1 17 -2 13 -5z m303 -109 c0 -103 -8 -118 -70
-128 -19 -3 -44 -8 -55 -11 -11 -4 -6 0 10 8 17 8 41 15 56 16 14 0 30 5 37
12 17 17 16 189 0 208 -11 12 -10 12 5 1 14 -11 17 -30 17 -106z m333 108 c-7
-2 -21 -2 -30 0 -10 3 -4 5 12 5 17 0 24 -2 18 -5z m344 1 c-3 -3 -12 -4 -19
-1 -8 3 -5 6 6 6 11 1 17 -2 13 -5z m303 -109 c0 -103 -8 -118 -70 -128 -19
-3 -44 -8 -55 -11 -11 -4 -6 0 10 8 17 8 41 15 56 16 14 0 30 5 37 12 17 17
16 189 0 208 -11 12 -10 12 5 1 14 -11 17 -30 17 -106z m343 108 c-7 -2 -21
-2 -30 0 -10 3 -4 5 12 5 17 0 24 -2 18 -5z m344 1 c-3 -3 -12 -4 -19 -1 -8 3
-5 6 6 6 11 1 17 -2 13 -5z m303 -109 c0 -103 -8 -118 -70 -128 -19 -3 -44 -8
-55 -11 -11 -4 -6 0 10 8 17 8 41 15 56 16 14 0 30 5 37 12 17 17 16 189 0
208 -11 12 -10 12 5 1 14 -11 17 -30 17 -106z m-2730 81 c0 -2 -21 -14 -46
-26 -25 -13 -49 -32 -54 -44 -7 -16 -9 -10 -9 27 l-1 47 55 0 c30 0 55 -2 55
-4z m980 0 c0 -2 -21 -14 -46 -26 -25 -13 -49 -32 -54 -44 -7 -16 -9 -10 -9
27 l-1 47 55 0 c30 0 55 -2 55 -4z m990 0 c0 -2 -21 -14 -46 -26 -25 -13 -49
-32 -54 -44 -7 -16 -9 -10 -9 27 l-1 47 55 0 c30 0 55 -2 55 -4z m-1274 -52
c9 -34 0 -40 -58 -47 -83 -10 -187 -67 -251 -137 -44 -49 -60 -60 -86 -60
l-32 0 17 33 c27 51 129 144 195 177 51 26 155 56 197 56 7 1 15 -10 18 -22z
m980 0 c9 -34 0 -40 -58 -47 -83 -10 -187 -67 -251 -137 -44 -49 -60 -60 -86
-60 l-32 0 17 33 c27 51 129 144 195 177 51 26 155 56 197 56 7 1 15 -10 18
-22z m990 0 c9 -34 0 -40 -58 -47 -83 -10 -187 -67 -251 -137 -44 -49 -60 -60
-86 -60 l-32 0 17 33 c27 51 129 144 195 177 51 26 155 56 197 56 7 1 15 -10
18 -22z m-2495 -125 c-51 -37 -108 -100 -116 -127 -14 -49 0 -52 236 -52 l218
0 28 52 c15 28 39 58 53 67 21 13 19 9 -10 -25 -19 -22 -43 -55 -52 -72 l-17
-32 -219 0 c-205 0 -220 1 -237 20 -27 29 -12 65 55 131 58 57 59 58 32 62
-15 2 -6 4 19 3 l46 0 -36 -27z m980 0 c-51 -37 -108 -100 -116 -127 -14 -49
0 -52 236 -52 l218 0 28 52 c15 28 39 58 53 67 21 13 19 9 -10 -25 -19 -22
-43 -55 -52 -72 l-17 -32 -219 0 c-205 0 -220 1 -237 20 -27 29 -12 65 55 131
58 57 59 58 32 62 -15 2 -6 4 19 3 l46 0 -36 -27z m990 0 c-51 -37 -108 -100
-116 -127 -14 -49 0 -52 236 -52 l218 0 28 52 c15 28 39 58 53 67 21 13 19 9
-10 -25 -19 -22 -43 -55 -52 -72 l-17 -32 -219 0 c-205 0 -220 1 -237 20 -27
29 -12 65 55 131 58 57 59 58 32 62 -15 2 -6 4 19 3 l46 0 -36 -27z m-2043 7
c-7 -8 -15 -12 -17 -11 -5 6 10 25 20 25 5 0 4 -6 -3 -14z m980 0 c-7 -8 -15
-12 -17 -11 -5 6 10 25 20 25 5 0 4 -6 -3 -14z m990 0 c-7 -8 -15 -12 -17 -11
-5 6 10 25 20 25 5 0 4 -6 -3 -14z m-1853 -37 c-27 -30 -36 -48 -32 -65 4 -22
1 -24 -40 -24 -41 0 -43 1 -33 20 10 19 124 110 137 110 3 0 -11 -18 -32 -41z
m980 0 c-27 -30 -36 -48 -32 -65 4 -22 1 -24 -40 -24 -41 0 -43 1 -33 20 10
19 124 110 137 110 3 0 -11 -18 -32 -41z m990 0 c-27 -30 -36 -48 -32 -65 4
-22 1 -24 -40 -24 -41 0 -43 1 -33 20 10 19 124 110 137 110 3 0 -11 -18 -32
-41z m-2114 -12 c-10 -9 -11 -8 -5 6 3 10 9 15 12 12 3 -3 0 -11 -7 -18z m980
0 c-10 -9 -11 -8 -5 6 3 10 9 15 12 12 3 -3 0 -11 -7 -18z m990 0 c-10 -9 -11
-8 -5 6 3 10 9 15 12 12 3 -3 0 -11 -7 -18z m-1964 -215 c6 -4 -34 -6 -91 -4
-86 4 -105 1 -119 -13 -9 -9 -17 -13 -17 -8 0 25 29 33 120 33 52 0 100 -4
107 -8z m413 -3 c14 0 74 3 133 7 143 8 147 6 147 -121 0 -108 -5 -115 -92
-134 -58 -12 -128 -64 -128 -93 0 -8 -7 -23 -15 -34 -13 -16 -13 -14 1 21 22
59 75 102 143 116 31 7 62 17 69 22 19 15 17 191 -3 207 -11 9 -43 10 -122 6
-60 -4 -130 -6 -158 -4 -27 2 -122 3 -210 3 -89 0 -142 3 -120 6 22 4 105 5
185 3 80 -3 156 -5 170 -5z m567 3 c6 -4 -34 -6 -90 -4 -58 2 -109 -1 -117 -7
-11 -8 -16 -38 -21 -118 l-5 -108 -2 100 c-3 141 1 145 126 145 53 0 102 -4
109 -8z m413 -3 c14 0 74 3 133 7 143 8 147 6 147 -121 0 -108 -5 -115 -92
-134 -58 -12 -128 -64 -128 -93 0 -8 -7 -23 -15 -34 -13 -16 -13 -14 1 21 22
59 75 102 143 116 31 7 62 17 69 22 19 15 17 191 -3 207 -11 9 -43 10 -122 6
-60 -4 -130 -6 -158 -4 -27 2 -122 3 -210 3 -89 0 -142 3 -120 6 22 4 105 5
185 3 80 -3 156 -5 170 -5z m577 3 c6 -4 -34 -6 -90 -4 -58 2 -109 -1 -117 -7
-11 -8 -16 -38 -21 -118 l-5 -108 -2 100 c-3 141 1 145 126 145 53 0 102 -4
109 -8z m413 -3 c14 0 75 3 135 7 100 5 112 4 125 -12 14 -17 14 -18 -2 -5
-14 10 -42 12 -125 7 -60 -4 -130 -6 -158 -4 -27 2 -122 3 -210 3 -89 0 -142
3 -120 6 22 4 105 5 185 3 80 -3 156 -5 170 -5z m-1735 -108 l0 -84 -62 -17
c-77 -21 -123 -55 -148 -109 l-18 -41 -214 0 c-182 0 -213 2 -213 15 0 25 69
93 149 146 42 28 78 53 81 56 5 5 -63 0 -173 -13 -42 -5 -52 -11 -69 -40 l-20
-35 -82 3 -81 3 -3 89 c-2 49 -1 95 2 102 4 10 96 12 428 11 l423 -2 0 -84z
m980 0 l0 -84 -62 -17 c-77 -21 -123 -55 -148 -109 l-18 -41 -214 0 c-182 0
-213 2 -213 15 0 25 69 93 149 146 42 28 78 53 81 56 5 5 -63 0 -173 -13 -42
-5 -52 -11 -69 -40 l-20 -35 -82 3 -81 3 -3 89 c-2 49 -1 95 2 102 4 10 96 12
428 11 l423 -2 0 -84z m990 0 l0 -84 -62 -17 c-77 -21 -123 -55 -148 -109
l-18 -41 -214 0 c-182 0 -213 2 -213 15 0 25 69 93 149 146 42 28 78 53 81 56
5 5 -63 0 -173 -13 -42 -5 -52 -11 -69 -40 l-20 -35 -82 3 -81 3 -3 89 c-2 49
-1 95 2 102 4 10 96 12 428 11 l423 -2 0 -84z m-2515 -98 c-19 -15 -55 -47
-78 -71 -37 -38 -43 -49 -40 -77 2 -19 0 -31 -4 -29 -4 3 -8 19 -8 36 0 24 13
43 64 94 58 56 63 63 43 67 -12 2 -4 5 18 6 l40 1 -35 -27z m980 0 c-19 -15
-55 -47 -78 -71 -37 -38 -43 -49 -40 -77 2 -19 0 -31 -4 -29 -4 3 -8 19 -8 36
0 24 13 43 64 94 58 56 63 63 43 67 -12 2 -4 5 18 6 l40 1 -35 -27z m990 0
c-19 -15 -55 -47 -78 -71 -37 -38 -43 -49 -40 -77 2 -19 0 -31 -4 -29 -4 3 -8
19 -8 36 0 24 13 43 64 94 58 56 63 63 43 67 -12 2 -4 5 18 6 l40 1 -35 -27z
m-2030 13 c0 -2 -7 -7 -16 -10 -8 -3 -12 -2 -9 4 6 10 25 14 25 6z m980 0 c0
-2 -7 -7 -16 -10 -8 -3 -12 -2 -9 4 6 10 25 14 25 6z m990 0 c0 -2 -7 -7 -16
-10 -8 -3 -12 -2 -9 4 6 10 25 14 25 6z m630 -29 c-8 -8 -40 -19 -72 -26 -58
-12 -128 -64 -128 -93 0 -8 -7 -23 -15 -34 -13 -16 -13 -14 1 21 22 59 75 102
143 116 31 7 60 16 66 21 15 14 20 9 5 -5z m-2646 -34 c-12 -8 -49 -13 -110
-13 -75 0 -94 3 -105 18 -11 14 -11 15 1 5 9 -9 47 -13 107 -13 82 0 94 2 105
20 8 12 14 16 17 8 2 -6 -4 -17 -15 -25z m980 0 c-12 -8 -49 -13 -110 -13 -75
0 -94 3 -105 18 -11 14 -11 15 1 5 9 -9 47 -13 107 -13 82 0 94 2 105 20 8 12
14 16 17 8 2 -6 -4 -17 -15 -25z m990 0 c-12 -8 -49 -13 -110 -13 -75 0 -94 3
-105 18 -11 14 -11 15 1 5 9 -9 47 -13 107 -13 82 0 94 2 105 20 8 12 14 16
17 8 2 -6 -4 -17 -15 -25z"/>
</g>
</svg>
